<?xml version="1.0" encoding="UTF-8"?>
<svg version="1.1" xmlns="http://www.w3.org/2000/svg" width="321" height="292">
<path d="M0 0 C105.93 0 211.86 0 321 0 C321 96.36 321 192.72 321 292 C215.07 292 109.14 292 0 292 C0 195.64 0 99.28 0 0 Z " fill="#FDFDFD" transform="translate(0,0)"/>
<path d="M0 0 C-0.57559855 4.27031899 -2.06145989 7.07554452 -4.375 10.6875 C-5.10620534 11.84198172 -5.8366306 12.99695776 -6.56640625 14.15234375 C-7.15639404 15.08022705 -7.15639404 15.08022705 -7.75830078 16.02685547 C-9.51826809 18.82356326 -11.22519056 21.65148463 -12.9362793 24.47827148 C-17.48007416 31.97871698 -22.14741777 39.38550495 -26.93579102 46.73193359 C-30.93536547 52.87400948 -34.82308233 59.08182459 -38.6953125 65.3046875 C-41.75932227 70.2270691 -44.8751075 75.11606206 -48 80 C-50.53487308 79.63943616 -51.73487598 79.28583684 -53.5 77.3828125 C-56.6142132 72.69527284 -56.6142132 72.69527284 -57.80908203 70.83886719 C-59.22548762 68.6518301 -60.67505007 66.48786135 -62.12109375 64.3203125 C-63.22817403 62.63126351 -64.33363155 60.94114981 -65.4375 59.25 C-65.98212891 58.43418457 -66.52675781 57.61836914 -67.08789062 56.77783203 C-69.22538066 53.44974643 -70.83965476 50.66919593 -71.765625 46.8046875 C-70.58428547 42.47712737 -67.75412055 40.58291427 -64.3125 37.875 C-62.92804628 36.7337589 -61.54526428 35.59048715 -60.1640625 34.4453125 C-59.11460449 33.58534668 -59.11460449 33.58534668 -58.04394531 32.70800781 C-54.99352905 30.15894998 -52.08828301 27.46666198 -49.1875 24.75 C-48.12120192 23.76160204 -47.05479812 22.77331812 -45.98828125 21.78515625 C-44.10167592 20.03111342 -42.22614528 18.2672956 -40.35546875 16.49609375 C-27.79351115 4.80457101 -17.10370966 -0.27390282 0 0 Z " fill="#528DC5" transform="translate(235,78)"/>
<path d="M0 0 C14.81169805 -0.77353162 24.84726741 3.51876078 36 13 C39.23251566 15.96400907 42.29011917 19.08871425 45.328125 22.25 C48.09557838 25.09837307 50.97149376 27.70533046 53.9921875 30.27734375 C57.29245957 33.10890014 60.48847616 36.05638274 63.703125 38.984375 C65.90067578 41.03139099 65.90067578 41.03139099 68.296875 42.390625 C70 44 70 44 70.52734375 46.71875 C69.82777635 51.07161385 67.99198781 53.88104773 65.5625 57.5 C64.89275146 58.53253906 64.89275146 58.53253906 64.20947266 59.5859375 C63.2810882 61.01532887 62.34709713 62.44109339 61.40771484 63.86328125 C59.60537717 66.59898352 57.84172067 69.35852702 56.07788086 72.11914062 C54.39414884 74.75187281 52.69737084 77.37604508 51 80 C48.8046875 79.97265625 48.8046875 79.97265625 46 79 C44.1421735 76.49530652 42.64058181 74.13978927 41.125 71.4375 C40.16073448 69.78926311 39.19448112 68.14218803 38.2265625 66.49609375 C37.4516748 65.16553955 37.4516748 65.16553955 36.66113281 63.80810547 C33.70528866 58.8113213 30.59347833 53.91229639 27.5 49 C22.50066181 41.02681957 17.55248713 33.02543994 12.66040039 24.98608398 C8.55586141 18.2494478 4.37624206 11.56436309 0 5 C-0.125 2.3125 -0.125 2.3125 0 0 Z " fill="#63B1B9" transform="translate(85,78)"/>
<path d="M0 0 C3.625 1.5 3.625 1.5 6 3 C6 3.66 6 4.32 6 5 C6.66 5 7.32 5 8 5 C10.64872522 9.57986752 10.52327047 13.83270411 10 19 C8.11130184 24.36787898 5.08016831 27.45991584 0 30 C-5.82256059 30.39474987 -9.80885925 29.9948889 -15 27 C-18.81922644 22.17571397 -20.37970479 18.25712315 -20.27734375 12.05859375 C-19.64741334 7.3829131 -16.73286663 4.66306981 -13.375 1.625 C-8.8115129 -0.57223453 -4.98197497 -0.70134599 0 0 Z " fill="#111830" transform="translate(229,190)"/>
<path d="M0 0 C3.33961281 2.13364152 5.74128939 4.75239409 7.25 8.4375 C7.25 11.0775 7.25 13.7175 7.25 16.4375 C-0.01 16.4375 -7.27 16.4375 -14.75 16.4375 C-13.20957252 21.24054035 -13.20957252 21.24054035 -10.75 23.4375 C-8.59868798 23.53615938 -8.59868798 23.53615938 -6.25 23.1875 C-5.4559375 23.09984375 -4.661875 23.0121875 -3.84375 22.921875 C-1.54399318 22.58451767 -1.54399318 22.58451767 0.25 20.4375 C3.375 20.8125 3.375 20.8125 6.25 21.4375 C4.85440273 24.8101934 3.3578412 26.51795102 0.25 28.4375 C-3.52559327 29.92076879 -7.76052021 29.98432059 -11.75 29.4375 C-16.54642058 27.03928971 -19.35178971 24.23392058 -21.75 19.4375 C-22.40068786 13.58130927 -21.67499733 9.6823228 -18.75 4.4375 C-12.87929137 -1.00364458 -7.72203188 -1.57950652 0 0 Z " fill="#2C3343" transform="translate(120.75,190.5625)"/>
<path d="M0 0 C1.98 0 3.96 0 6 0 C6.33773437 1.04800781 6.67546875 2.09601563 7.0234375 3.17578125 C7.47371821 4.55476593 7.92425231 5.93366789 8.375 7.3125 C8.59671875 8.00279297 8.8184375 8.69308594 9.046875 9.40429688 C10.09933391 12.60810562 11.11756127 15.17634191 13 18 C14.98 12.06 16.96 6.12 19 0 C20.98 0 22.96 0 25 0 C25.63228516 1.82337891 25.63228516 1.82337891 26.27734375 3.68359375 C26.83057808 5.26828192 27.38397172 6.85291448 27.9375 8.4375 C28.35418945 9.64116211 28.35418945 9.64116211 28.77929688 10.86914062 C29.04677734 11.63291016 29.31425781 12.39667969 29.58984375 13.18359375 C29.83597412 13.89056396 30.08210449 14.59753418 30.33569336 15.32592773 C30.87467975 17.00682632 30.87467975 17.00682632 32 18 C32.81487171 15.75083381 33.62696918 13.50073022 34.4375 11.25 C34.66759766 10.61578125 34.89769531 9.9815625 35.13476562 9.328125 C36.24244769 6.24587924 37.29661036 3.20163562 38 0 C40.31 0 42.62 0 45 0 C42.84190736 6.54631439 40.59781538 13.05960885 38.3125 19.5625 C37.99216797 20.47580078 37.67183594 21.38910156 37.34179688 22.33007812 C36.56181678 24.55360346 35.78120838 26.77690598 35 29 C33.02 29 31.04 29 29 29 C27.99394407 26.39802798 26.99497475 23.79370638 26 21.1875 C25.71382812 20.44951172 25.42765625 19.71152344 25.1328125 18.95117188 C24.86210938 18.23896484 24.59140625 17.52675781 24.3125 16.79296875 C24.06113281 16.1383667 23.80976562 15.48376465 23.55078125 14.80932617 C23 13 23 13 23 10 C22.34 10 21.68 10 21 10 C20.731875 11.27875 20.46375 12.5575 20.1875 13.875 C17.0625 27.9375 17.0625 27.9375 15 30 C13.33382885 30.04063832 11.66611905 30.042721 10 30 C9.29990029 28.13234939 8.59983227 26.2646869 7.89990234 24.39697266 C7.30023476 22.79970289 6.69899859 21.20302113 6.09619141 19.60693359 C5.16354559 17.13554587 4.23766766 14.66169576 3.3125 12.1875 C2.99216797 11.34251953 2.67183594 10.49753906 2.34179688 9.62695312 C2.03951172 8.81548828 1.73722656 8.00402344 1.42578125 7.16796875 C1.01453003 6.07391724 1.01453003 6.07391724 0.5949707 4.95776367 C0 3 0 3 0 0 Z " fill="#1C2236" transform="translate(47,190)"/>
<path d="M0 0 C0.99 0.33 1.98 0.66 3 1 C1.69142516 4.53753486 0.13495788 7.54080968 -1.9375 10.6875 C-5.13202235 15.61486884 -8.2065088 20.60307871 -11.25 25.625 C-15.36857093 32.40156013 -19.60542092 39.08842847 -23.93554688 45.73144531 C-27.93506808 51.87377152 -31.82298607 58.08166989 -35.6953125 64.3046875 C-38.75932227 69.2270691 -41.8751075 74.11606206 -45 79 C-47.53487308 78.63943616 -48.73487598 78.28583684 -50.5 76.3828125 C-53.6142132 71.69527284 -53.6142132 71.69527284 -54.80908203 69.83886719 C-56.22548762 67.6518301 -57.67505007 65.48786135 -59.12109375 63.3203125 C-60.22817403 61.63126351 -61.33363155 59.94114981 -62.4375 58.25 C-62.98212891 57.43418457 -63.52675781 56.61836914 -64.08789062 55.77783203 C-66.20995138 52.47376991 -67.83226651 49.66193364 -68.80078125 45.83984375 C-67.52619428 41.31972314 -64.33342737 39.17063108 -60.75 36.3125 C-60.06808594 35.74466797 -59.38617188 35.17683594 -58.68359375 34.59179688 C-55.52152062 31.97310912 -52.3177377 29.41989631 -49 27 C-48.67 28.32 -48.34 29.64 -48 31 C-47.34 31 -46.68 31 -46 31 C-46 31.66 -46 32.32 -46 33 C-47.32 32.67 -48.64 32.34 -50 32 C-50 32.66 -50 33.32 -50 34 C-51.98 34.495 -51.98 34.495 -54 35 C-54.12375 35.969375 -54.2475 36.93875 -54.375 37.9375 C-54.58125 38.948125 -54.7875 39.95875 -55 41 C-55.99 41.495 -55.99 41.495 -57 42 C-57.33 42.66 -57.66 43.32 -58 44 C-60.0625 45.125 -60.0625 45.125 -62 46 C-61.10232344 49.1315587 -61.10232344 49.1315587 -59 52 C-59.99 52.495 -59.99 52.495 -61 53 C-61 53.66 -61 54.32 -61 55 C-60.01 55.66 -59.02 56.32 -58 57 C-57.855625 57.825 -57.71125 58.65 -57.5625 59.5 C-57.27087348 62.16822177 -57.27087348 62.16822177 -54.9375 63.3125 C-54.298125 63.539375 -53.65875 63.76625 -53 64 C-53 65.65 -53 67.3 -53 69 C-50.69 68.01 -48.38 67.02 -46 66 C-45.505 66.99 -45.505 66.99 -45 68 C-44.01 67.01 -44.01 67.01 -43 66 C-42.319375 65.690625 -41.63875 65.38125 -40.9375 65.0625 C-38.65434116 64.09596458 -38.65434116 64.09596458 -38 61 C-37.01 60.505 -37.01 60.505 -36 60 C-36.33 59.01 -36.66 58.02 -37 57 C-36.34 57 -35.68 57 -35 57 C-33.68 54.69 -32.36 52.38 -31 50 C-30.34 50 -29.68 50 -29 50 C-28.71125 48.9275 -28.4225 47.855 -28.125 46.75 C-26.47826087 41.26086957 -26.47826087 41.26086957 -25 39 C-24.01 38.67 -23.02 38.34 -22 38 C-20.41266403 35.65779122 -20.41266403 35.65779122 -19 32.8125 C-18.47792969 31.81992188 -17.95585937 30.82734375 -17.41796875 29.8046875 C-16.35254608 27.69732254 -15.32337426 25.57156789 -14.3125 23.4375 C-13 21 -13 21 -10 19 C-9.855625 18.21625 -9.71125 17.4325 -9.5625 16.625 C-8.85330917 13.31544278 -7.36052651 12.36052651 -5 10 C-3.73215876 6.86649283 -3.73215876 6.86649283 -3 4 C-2.34 4 -1.68 4 -1 4 C-0.67 2.68 -0.34 1.36 0 0 Z " fill="#619DBB" transform="translate(232,79)"/>
<path d="M0 0 C2.625 1.75 2.625 1.75 4 4 C4 5.32 4 6.64 4 8 C2.35 8 0.7 8 -1 8 C-1.33 7.34 -1.66 6.68 -2 6 C-4.31 6 -6.62 6 -9 6 C-9 7.32 -9 8.64 -9 10 C-8.24074219 10.25394531 -7.48148437 10.50789062 -6.69921875 10.76953125 C-5.70535156 11.11371094 -4.71148437 11.45789063 -3.6875 11.8125 C-2.20830078 12.31716797 -2.20830078 12.31716797 -0.69921875 12.83203125 C1.92460062 13.96737422 3.32101545 14.71502434 5 17 C5.46054692 20.17265659 5.7039397 21.98479163 5 25 C2.37582354 28.22975564 0.85575316 29.62620302 -3.19140625 30.44140625 C-7.3024048 30.65704238 -9.7463337 30.1223034 -13.5 28.3125 C-16.21677989 25.7994786 -16.79803569 24.63535761 -17 21 C-14.125 20.8125 -14.125 20.8125 -11 21 C-10.34 21.99 -9.68 22.98 -9 24 C-5.92078868 24.25660094 -3.78863007 24.39431504 -1 23 C-1.0829424 21.04055934 -1.0829424 21.04055934 -2 19 C-4.44014656 17.74293764 -4.44014656 17.74293764 -7.375 16.9375 C-13.79283922 14.96473412 -13.79283922 14.96473412 -16 12 C-16.5625 8.625 -16.5625 8.625 -16 5 C-11.58108348 -0.46550201 -6.83107018 -1.27497714 0 0 Z " fill="#1B2238" transform="translate(266,190)"/>
<path d="M0 0 C0 2.64 0 5.28 0 8 C2.64 8 5.28 8 8 8 C8 9.98 8 11.96 8 14 C5.36 14 2.72 14 0 14 C0.33 19.61 0.66 25.22 1 31 C3.31 31.33 5.62 31.66 8 32 C8 33.98 8 35.96 8 38 C-0.63502756 38.4390692 -0.63502756 38.4390692 -5 35 C-6.20029908 32.59940183 -6.11459743 31.10639351 -6.09765625 28.4296875 C-6.09443359 27.53378906 -6.09121094 26.63789063 -6.08789062 25.71484375 C-6.07951172 24.77769531 -6.07113281 23.84054688 -6.0625 22.875 C-6.05798828 21.93011719 -6.05347656 20.98523438 -6.04882812 20.01171875 C-6.03702357 17.67441613 -6.02055759 15.33723939 -6 13 C-7.65 13 -9.3 13 -11 13 C-11 11.35 -11 9.7 -11 8 C-9.35 8 -7.7 8 -6 8 C-6 5.69 -6 3.38 -6 1 C-4 0 -4 0 0 0 Z " fill="#111934" transform="translate(193,182)"/>
<path d="M0 0 C1.98 0 3.96 0 6 0 C6 2.64 6 5.28 6 8 C8.64 8 11.28 8 14 8 C14.042721 9.66611905 14.04063832 11.33382885 14 13 C13.67 13.33 13.34 13.66 13 14 C10.69 14 8.38 14 6 14 C6.33 19.61 6.66 25.22 7 31 C9.31 31.33 11.62 31.66 14 32 C14.042721 33.66611905 14.04063832 35.33382885 14 37 C12.17505765 38.82494235 9.64599159 38.40198167 7.203125 38.62109375 C4.33299015 37.81195999 2.78422158 36.27953956 0.98583984 33.94067383 C-0.92510051 30.17889451 -0.51412578 26.2443697 -0.3125 22.125 C-0.27866211 20.80628906 -0.27866211 20.80628906 -0.24414062 19.4609375 C-0.18559748 17.30654993 -0.09592783 15.1530469 0 13 C-1.65 13 -3.3 13 -5 13 C-5 11.35 -5 9.7 -5 8 C-3.35 8 -1.7 8 0 8 C0 5.36 0 2.72 0 0 Z " fill="#41475E" transform="translate(160,182)"/>
<path d="M0 0 C2.875 2.4375 2.875 2.4375 5 5 C5.33 5.33 5.66 5.66 6 6 C6.12832744 10.51895899 5.80824827 13.99581276 2.9375 17.5625 C-1.13669487 19.55625494 -3.47587895 19.50268012 -8 19 C-10.4375 18.0625 -10.4375 18.0625 -12 16 C-13.20066525 11.67260234 -13.52392671 8.23122777 -11.75 4.0625 C-8.17180263 -0.15466119 -5.35509894 -0.64630504 0 0 Z " fill="#F2F4F6" transform="translate(228,195)"/>
<path d="M0 0 C3.69059994 0.87426509 5.13063077 2.36922768 7.16015625 5.51171875 C7.85352718 8.35396655 7.85352718 10.66947095 7.16015625 13.51171875 C5.13063077 16.65420982 3.69059994 18.14917241 0 19.0234375 C-3.27865494 19.26974714 -5.75515258 19.24570146 -8.53125 17.3671875 C-10.77748212 14.94176878 -11.79621123 12.72115487 -12.46484375 9.51171875 C-10.94981824 2.23959632 -7.15755821 -0.53771305 0 0 Z " fill="#081433" transform="translate(161.83984375,76.48828125)"/>
<path d="M0 0 C1.98 0 3.96 0 6 0 C6 13.2 6 26.4 6 40 C4.02 40 2.04 40 0 40 C0 26.8 0 13.6 0 0 Z " fill="#151E33" transform="translate(139,179)"/>
<path d="M0 0 C0.99 0.33 1.98 0.66 3 1 C1.69142516 4.53753486 0.13495788 7.54080968 -1.9375 10.6875 C-5.13202235 15.61486884 -8.2065088 20.60307871 -11.25 25.625 C-15.36857093 32.40156013 -19.60542092 39.08842847 -23.93554688 45.73144531 C-27.09306399 50.58065078 -30.19038412 55.46348059 -33.25 60.375 C-33.66137207 61.03258301 -34.07274414 61.69016602 -34.49658203 62.36767578 C-36.37907676 65.38012297 -38.24566722 68.39978878 -40.07421875 71.4453125 C-40.68910156 72.45335937 -41.30398437 73.46140625 -41.9375 74.5 C-42.46214844 75.3765625 -42.98679688 76.253125 -43.52734375 77.15625 C-44.01332031 77.7646875 -44.49929687 78.373125 -45 79 C-45.99 79 -46.98 79 -48 79 C-48 78.34 -48 77.68 -48 77 C-47.34 77 -46.68 77 -46 77 C-45.896875 76.360625 -45.79375 75.72125 -45.6875 75.0625 C-45.460625 74.381875 -45.23375 73.70125 -45 73 C-43.515 72.505 -43.515 72.505 -42 72 C-42 70.68 -42 69.36 -42 68 C-41.34 68 -40.68 68 -40 68 C-39.855625 67.401875 -39.71125 66.80375 -39.5625 66.1875 C-39.1127561 64.43849596 -38.57107659 62.71322977 -38 61 C-37.01 60.505 -37.01 60.505 -36 60 C-36.495 58.515 -36.495 58.515 -37 57 C-36.34 57 -35.68 57 -35 57 C-33.68 54.69 -32.36 52.38 -31 50 C-30.34 50 -29.68 50 -29 50 C-28.71125 48.9275 -28.4225 47.855 -28.125 46.75 C-26.47826087 41.26086957 -26.47826087 41.26086957 -25 39 C-23.515 38.505 -23.515 38.505 -22 38 C-20.41266403 35.65779122 -20.41266403 35.65779122 -19 32.8125 C-18.47792969 31.81992188 -17.95585937 30.82734375 -17.41796875 29.8046875 C-16.35254608 27.69732254 -15.32337426 25.57156789 -14.3125 23.4375 C-13 21 -13 21 -10 19 C-9.855625 18.21625 -9.71125 17.4325 -9.5625 16.625 C-8.85330917 13.31544278 -7.36052651 12.36052651 -5 10 C-3.73215876 6.86649283 -3.73215876 6.86649283 -3 4 C-2.34 4 -1.68 4 -1 4 C-0.67 2.68 -0.34 1.36 0 0 Z " fill="#5C7DAE" transform="translate(232,79)"/>
<path d="M0 0 C0 0.99 0 1.98 0 3 C-0.66 3.66 -1.32 4.32 -2 5 C-0.948125 4.896875 0.10375 4.79375 1.1875 4.6875 C5 5 5 5 7.9375 7.3125 C10 10 10 10 10 13 C8.94039062 13.04898438 7.88078125 13.09796875 6.7890625 13.1484375 C5.40101503 13.22346709 4.01299549 13.29901485 2.625 13.375 C1.57699219 13.42140625 1.57699219 13.42140625 0.5078125 13.46875 C-3.70185827 13.59499498 -3.70185827 13.59499498 -7 16 C-7.66 15.67 -8.32 15.34 -9 15 C-9.33 15.66 -9.66 16.32 -10 17 C-10.66 17.33 -11.32 17.66 -12 18 C-12.86051909 8.3239409 -12.86051909 8.3239409 -9.75 4.5 C-6.33907528 1.39915934 -4.614786 0 0 0 Z " fill="#182039" transform="translate(112,190)"/>
<path d="M0 0 C2.75026417 -0.05404449 5.49946203 -0.09369306 8.25 -0.125 C9.02730469 -0.14175781 9.80460937 -0.15851563 10.60546875 -0.17578125 C14.63715404 -0.2102401 17.48747467 -0.18704407 21 2 C22.99110401 2.38290462 24.99100513 2.72604615 27 3 C27 3.99 27 4.98 27 6 C27.94875 6.309375 28.8975 6.61875 29.875 6.9375 C33 8 33 8 35 9 C34.67 9.99 34.34 10.98 34 12 C33.443125 11.67386719 32.88625 11.34773438 32.3125 11.01171875 C22.29378691 5.27465163 13.33401159 3.25441535 2 2 C5.01066709 11.89011411 11.18577343 20.3658386 16.78320312 28.96728516 C19.74126849 33.5338306 22.46596877 38.18661405 25 43 C23.68 43 22.36 43 21 43 C20.32880451 41.5437455 19.66318193 40.08492133 19 38.625 C18.62875 37.81289062 18.2575 37.00078125 17.875 36.1640625 C17 34 17 34 17 32 C16.01 32 15.02 32 14 32 C13.67 30.35 13.34 28.7 13 27 C12.34 27 11.68 27 11 27 C10.32845067 25.71086513 9.66291141 24.41859796 9 23.125 C8.62875 22.40570313 8.2575 21.68640625 7.875 20.9453125 C7 19 7 19 7 17 C6.34 17 5.68 17 5 17 C4.67 16.01 4.34 15.02 4 14 C3.319375 13.484375 2.63875 12.96875 1.9375 12.4375 C-1.07845653 8.64323211 -0.32112975 4.67422193 0 0 Z " fill="#DBF9F7" transform="translate(83,76)"/>
<path d="M0 0 C0.79664063 0.09023437 1.59328125 0.18046875 2.4140625 0.2734375 C4.375 0.625 4.375 0.625 5.375 1.625 C5.41563832 3.29117115 5.417721 4.95888095 5.375 6.625 C3.395 7.615 3.395 7.615 1.375 8.625 C2.035 6.645 2.695 4.665 3.375 2.625 C-13.12107716 3.75861668 -23.56131588 7.90930676 -35.625 19.625 C-41.40251253 24.96215335 -47.21422761 30.05866771 -53.625 34.625 C-53.955 33.965 -54.285 33.305 -54.625 32.625 C-53.25 31.125 -53.25 31.125 -51.625 29.625 C-50.965 29.625 -50.305 29.625 -49.625 29.625 C-49.625 28.965 -49.625 28.305 -49.625 27.625 C-48.635 27.625 -47.645 27.625 -46.625 27.625 C-46.356875 26.820625 -46.08875 26.01625 -45.8125 25.1875 C-45.420625 24.341875 -45.02875 23.49625 -44.625 22.625 C-43.635 22.295 -42.645 21.965 -41.625 21.625 C-41.625 20.965 -41.625 20.305 -41.625 19.625 C-40.985625 19.521875 -40.34625 19.41875 -39.6875 19.3125 C-39.006875 19.085625 -38.32625 18.85875 -37.625 18.625 C-37.295 17.635 -36.965 16.645 -36.625 15.625 C-35.635 15.625 -34.645 15.625 -33.625 15.625 C-33.5321875 14.7278125 -33.5321875 14.7278125 -33.4375 13.8125 C-32.28945318 10.72160471 -30.51952948 10.0369656 -27.625 8.625 C-26.965 8.625 -26.305 8.625 -25.625 8.625 C-25.625 7.965 -25.625 7.305 -25.625 6.625 C-24.820625 6.33625 -24.01625 6.0475 -23.1875 5.75 C-20.4923532 4.89237432 -20.4923532 4.89237432 -19.625 2.625 C-18.6040625 2.686875 -18.6040625 2.686875 -17.5625 2.75 C-11.34236344 2.48531334 -6.24758305 -0.75296604 0 0 Z " fill="#D4F0FA" transform="translate(231.625,75.375)"/>
<path d="M0 0 C4.96616441 0.11901483 8.08074422 0.23395352 12 3.5 C12.66 4.325 13.32 5.15 14 6 C14.33 6.33 14.66 6.66 15 7 C15.1328125 8.8125 15.1328125 8.8125 15.125 11 C15.12886719 12.0828125 15.12886719 12.0828125 15.1328125 13.1875 C15 15 15 15 14 16 C12.5112814 16.08669432 11.018555 16.10703494 9.52734375 16.09765625 C8.62822266 16.09443359 7.72910156 16.09121094 6.80273438 16.08789062 C5.85720703 16.07951172 4.91167969 16.07113281 3.9375 16.0625 C2.98810547 16.05798828 2.03871094 16.05347656 1.06054688 16.04882812 C-1.29303065 16.0370011 -3.64648477 16.02052025 -6 16 C-6 15.01 -6 14.02 -6 13 C-0.72 13 4.56 13 10 13 C7.83333333 7.16666667 7.83333333 7.16666667 5 6 C3.62657169 5.9310528 2.24997898 5.91532292 0.875 5.9375 C-0.40375 5.958125 -1.6825 5.97875 -3 6 C-2.67 5.01 -2.34 4.02 -2 3 C-1.34 3 -0.68 3 0 3 C0 2.01 0 1.02 0 0 Z " fill="#0F172D" transform="translate(112,190)"/>
<path d="M0 0 C2.91517292 1.07401108 4.77810176 1.77810176 7 4 C7.8815616 9.74710349 5.56439504 13.04946476 2.5 17.625 C1.82203369 18.66636108 1.82203369 18.66636108 1.13037109 19.72875977 C0.20680677 21.14366811 -0.72238428 22.55491998 -1.65722656 23.96240234 C-2.9015518 25.85060932 -4.10921539 27.75640188 -5.3046875 29.67578125 C-5.98789063 30.75214844 -6.67109375 31.82851562 -7.375 32.9375 C-7.98085937 33.89527344 -8.58671875 34.85304687 -9.2109375 35.83984375 C-11.13849391 38.16722082 -12.04419829 38.69400291 -15 39 C-14.45472656 38.21689453 -14.45472656 38.21689453 -13.8984375 37.41796875 C-9.84664136 31.48572363 -6.32745488 25.36425858 -3 19 C-2.61585938 18.34128906 -2.23171875 17.68257812 -1.8359375 17.00390625 C-0.78083222 14.47461182 -0.80317691 12.47927743 -0.875 9.75 C-0.90207031 8.41195312 -0.90207031 8.41195312 -0.9296875 7.046875 C-0.95289063 6.37140625 -0.97609375 5.6959375 -1 5 C-0.34 5 0.32 5 1 5 C0.67 3.35 0.34 1.7 0 0 Z " fill="#609CB6" transform="translate(148,118)"/>
<path d="M0 0 C2.5 1.1875 2.5 1.1875 5 3 C5.4375 5.5625 5.4375 5.5625 5 8 C4.34 8.66 3.68 9.32 3 10 C2.56613908 13.87797662 2.56613908 13.87797662 4.5 15.75 C4.995 16.1625 5.49 16.575 6 17 C5.34 18.98 4.68 20.96 4 23 C3.67 23 3.34 23 3 23 C2.7834375 21.39125 2.7834375 21.39125 2.5625 19.75 C1.83449086 17.13338745 1.35975005 16.22932274 -0.9609375 14.75 C-3.28497929 13.76170316 -5.63372256 12.88123436 -8 12 C-9.68756133 11.03567924 -11.36675689 10.05370523 -13 9 C-12.34 7.68 -11.68 6.36 -11 5 C-8.69 5 -6.38 5 -4 5 C-3.67 5.99 -3.34 6.98 -3 8 C-1.35 8 0.3 8 2 8 C1.67 7.236875 1.34 6.47375 1 5.6875 C0 3 0 3 0 0 Z " fill="#E9ECF1" transform="translate(268,190)"/>
<path d="M0 0 C1.98 0 3.96 0 6 0 C7.03411477 2.74564964 8.05251157 5.4954861 9.0625 8.25 C9.35705078 9.02730469 9.65160156 9.80460938 9.95507812 10.60546875 C10.22900391 11.35957031 10.50292969 12.11367187 10.78515625 12.890625 C11.04176025 13.58188477 11.29836426 14.27314453 11.56274414 14.98535156 C12.06952056 17.32031471 11.74214139 18.75375603 11 21 C10.67 20.34 10.34 19.68 10 19 C9.360625 18.896875 8.72125 18.79375 8.0625 18.6875 C6 18 6 18 4.75 15.625 C4 13 4 13 4 10 C3.34 10 2.68 10 2 10 C1.67 10.99 1.34 11.98 1 13 C0.34 12.01 -0.32 11.02 -1 10 C-1.99 10.495 -1.99 10.495 -3 11 C-2.01 7.37 -1.02 3.74 0 0 Z " fill="#0E152D" transform="translate(66,190)"/>
<path d="M0 0 C1.16015625 0.11794922 1.16015625 0.11794922 2.34375 0.23828125 C4.5 0.6875 4.5 0.6875 7.5 2.6875 C7.5 3.3475 7.5 4.0075 7.5 4.6875 C8.16 4.6875 8.82 4.6875 9.5 4.6875 C11.31643761 7.80139304 11.7719038 10.09527709 11.75 13.6875 C11.75515625 14.533125 11.7603125 15.37875 11.765625 16.25 C11.48531155 18.82228811 10.7948187 20.4678108 9.5 22.6875 C6.44164457 19.49617259 6.32892113 16.9401129 5.9296875 12.65234375 C5.19010352 9.27042791 3.15573502 7.73965888 0.5 5.6875 C-1.14991582 4.98039322 -2.81562256 4.30806011 -4.5 3.6875 C-6.3125 2.0625 -6.3125 2.0625 -7.5 0.6875 C-4.49032056 -0.31572648 -3.0759723 -0.34348357 0 0 Z M9.5 13.6875 C8.84 15.3375 8.18 16.9875 7.5 18.6875 C8.49 18.3575 9.48 18.0275 10.5 17.6875 C10.17 16.3675 9.84 15.0475 9.5 13.6875 Z " fill="#0F182C" transform="translate(227.5,190.3125)"/>
<path d="M0 0 C3.63 0 7.26 0 11 0 C8 2 8 2 6 2 C4.89459074 4.78918149 4.89459074 4.78918149 5 7 C6.29486821 8.69672386 7.63360658 10.3603279 9 12 C11.35346822 14.89657627 12.6466825 17.5321239 14 21 C14.53625 21.86625 15.0725 22.7325 15.625 23.625 C17 26 17 26 17 29 C17.66 29 18.32 29 19 29 C19.33 29.99 19.66 30.98 20 32 C20.66 31.67 21.32 31.34 22 31 C22.33 32.65 22.66 34.3 23 36 C21.68 36 20.36 36 19 36 C18.52691406 35.15179688 18.05382812 34.30359375 17.56640625 33.4296875 C12.09229814 23.69249519 6.19579965 14.29369948 0 5 C0 3.35 0 1.7 0 0 Z " fill="#75BBB0" transform="translate(85,78)"/>
<path d="M0 0 C2.79192205 -0.05380578 5.5828141 -0.09357669 8.375 -0.125 C9.1690625 -0.14175781 9.963125 -0.15851563 10.78125 -0.17578125 C12.85492015 -0.19335473 14.92883241 -0.10335168 17 0 C17.66 0.66 18.32 1.32 19 2 C17.25817761 5.48364478 13.50929481 6.62203837 10 8 C6.75 8.5 6.75 8.5 4 8 C1.625 6.25 1.625 6.25 0 4 C0 2.68 0 1.36 0 0 Z " fill="#E9ECF2" transform="translate(106,207)"/>
<path d="M0 0 C0.33 0 0.66 0 1 0 C1.02699725 2.27076842 1.04639453 4.54162821 1.0625 6.8125 C1.07410156 8.07707031 1.08570313 9.34164062 1.09765625 10.64453125 C1 14 1 14 0 17 C0.66 17.66 1.32 18.32 2 19 C2.625 21.125 2.625 21.125 3 23 C3 22.01 3 21.02 3 20 C4.98 20 6.96 20 9 20 C9 21.32 9 22.64 9 24 C7.58506449 24.10884119 6.16767057 24.18597617 4.75 24.25 C3.96109375 24.29640625 3.1721875 24.3428125 2.359375 24.390625 C0 24 0 24 -2.28125 22.4375 C-4.63875944 19.09412297 -4.39986719 16.79641423 -4.25 12.75 C-4.21390625 11.48671875 -4.1778125 10.2234375 -4.140625 8.921875 C-4.09421875 7.95765625 -4.0478125 6.9934375 -4 6 C-3.67 6.66 -3.34 7.32 -3 8 C-2.34 8 -1.68 8 -1 8 C-0.67 5.36 -0.34 2.72 0 0 Z " fill="#0A1127" transform="translate(191,195)"/>
<path d="M0 0 C0.66 0 1.32 0 2 0 C2.83919398 2.26882087 3.67151724 4.53977027 4.5 6.8125 C4.73847656 7.45509766 4.97695312 8.09769531 5.22265625 8.75976562 C6.27068746 11.64933739 7 13.90076061 7 17 C6.01 16.67 5.02 16.34 4 16 C3.67 15.34 3.34 14.68 3 14 C1.01508358 14.26676204 1.01508358 14.26676204 -1 15 C-1.33 15.99 -1.66 16.98 -2 18 C-2.99 18.33 -3.98 18.66 -5 19 C-4.39297368 12.3227105 -2.22368606 6.29872004 0 0 Z " fill="#E5E8ED" transform="translate(68,200)"/>
<path d="M0 0 C0.33 1.32 0.66 2.64 1 4 C0.01 4.33 -0.98 4.66 -2 5 C-1.34 3.35 -0.68 1.7 0 0 Z M-4 3 C-2.10786631 5.38573379 -0.97608217 7.07175348 0 10 C-5.9093867 15.0101322 -8.20910436 16.12565961 -16 16 C-16.33 15.34 -16.66 14.68 -17 14 C-16.01 13.34 -15.02 12.68 -14 12 C-14.66 11.34 -15.32 10.68 -16 10 C-15.38511719 9.91363281 -14.77023438 9.82726562 -14.13671875 9.73828125 C-8.79246389 8.92508804 -8.79246389 8.92508804 -4.9375 5.375 C-4.628125 4.59125 -4.31875 3.8075 -4 3 Z " fill="#11162D" transform="translate(237,204)"/>
<path d="M0 0 C2.25709674 1.28976957 2.82603314 2.61308562 3.75 5 C2.1103125 5.61875 2.1103125 5.61875 0.4375 6.25 C-2.76015942 7.60285591 -4.45653426 8.94055844 -6.25 12 C-6.58 11.34 -6.91 10.68 -7.25 10 C-9.43490007 12.67642489 -9.43490007 12.67642489 -9.25 15 C-9.91 15 -10.57 15 -11.25 15 C-11.58 15.99 -11.91 16.98 -12.25 18 C-12.66859743 11.93033732 -12.39344799 8.79767662 -8.25 4 C-3.32692308 0 -3.32692308 0 0 0 Z " fill="#1A213A" transform="translate(221.25,190)"/>
<path d="M0 0 C1.65 0 3.3 0 5 0 C5 2.64 5 5.28 5 8 C7.64 8 10.28 8 13 8 C13 8.33 13 8.66 13 9 C11.93458984 9.18175781 11.93458984 9.18175781 10.84765625 9.3671875 C9.92855469 9.53476563 9.00945312 9.70234375 8.0625 9.875 C6.68771484 10.11863281 6.68771484 10.11863281 5.28515625 10.3671875 C4.53105469 10.57601562 3.77695313 10.78484375 3 11 C2.67 11.66 2.34 12.32 2 13 C-0.31 12.67 -2.62 12.34 -5 12 C-5 10.35 -5 8.7 -5 7 C-3.35 7 -1.7 7 0 7 C0 4.69 0 2.38 0 0 Z " fill="#0B1433" transform="translate(160,183)"/>
<path d="M0 0 C2.9375 2.375 2.9375 2.375 5 5 C5 5.66 5 6.32 5 7 C-0.28 7 -5.56 7 -11 7 C-10.67 5.35 -10.34 3.7 -10 2 C-6.24952518 -0.50031654 -4.44143734 -0.53603554 0 0 Z " fill="#F0F5FA" transform="translate(117,195)"/>
<path d="M0 0 C0.66 0 1.32 0 2 0 C2 0.99 2 1.98 2 3 C5.83887763 4.48320272 8.06204091 5.22419163 12 4 C10.78623966 9.32187227 9.27376292 14.03906272 7 19 C4.85357551 15.78036326 3.64118646 12.55570141 2.375 8.9375 C2.14554687 8.30005859 1.91609375 7.66261719 1.6796875 7.00585938 C0 2.261742 0 2.261742 0 0 Z " fill="#E9ECF4" transform="translate(72,191)"/>
<path d="M0 0 C-0.33 1.32 -0.66 2.64 -1 4 C-1.66 4 -2.32 4 -3 4 C-3.1546875 5.36125 -3.1546875 5.36125 -3.3125 6.75 C-4.00649813 10.03071844 -4.70085668 11.60889095 -7 14 C-7.66 14 -8.32 14 -9 14 C-9 15.65 -9 17.3 -9 19 C-9.639375 19.28875 -10.27875 19.5775 -10.9375 19.875 C-13.15206079 20.82823451 -13.15206079 20.82823451 -14 23 C-13.855625 22.29875 -13.71125 21.5975 -13.5625 20.875 C-12.98521625 17.92443859 -12.48304859 14.96729849 -12 12 C-10.35 12 -8.7 12 -7 12 C-7.33 11.01 -7.66 10.02 -8 9 C-7.34 8.67 -6.68 8.34 -6 8 C-6 7.34 -6 6.68 -6 6 C-6.66 5.67 -7.32 5.34 -8 5 C-8.66 4.01 -9.32 3.02 -10 2 C-6.5980513 -0.09350689 -3.94727588 -0.17942163 0 0 Z " fill="#507DCD" transform="translate(232,79)"/>
<path d="M0 0 C1.9606842 0.61758554 3.91849063 1.24431345 5.875 1.875 C6.96554687 2.22304687 8.05609375 2.57109375 9.1796875 2.9296875 C12 4 12 4 14 6 C13.75 8.0625 13.75 8.0625 13 10 C10.29120665 11.35439668 7.99066732 11.06501451 5 11 C4.731875 10.360625 4.46375 9.72125 4.1875 9.0625 C3.11332248 6.66868314 3.11332248 6.66868314 0 6 C0.66 6 1.32 6 2 6 C2 4.68 2 3.36 2 2 C1.34 2 0.68 2 0 2 C0 1.34 0 0.68 0 0 Z " fill="#EAECF0" transform="translate(252,204)"/>
<path d="M0 0 C0.33 0 0.66 0 1 0 C1.309375 1.423125 1.309375 1.423125 1.625 2.875 C3.12781908 8.10859373 6.09238489 12.44495512 9 17 C9.64324219 18.01835937 10.28648437 19.03671875 10.94921875 20.0859375 C12.62437236 22.72948619 14.308148 25.3671179 16 28 C14.68 28.33 13.36 28.66 12 29 C12 28.01 12 27.02 12 26 C11.34 26 10.68 26 10 26 C8.5393715 23.35261084 8 22.10551666 8 19 C7.360625 18.773125 6.72125 18.54625 6.0625 18.3125 C4 17 4 17 3.25 14.375 C3.1675 13.59125 3.085 12.8075 3 12 C2.34 12 1.68 12 1 12 C0.525625 10.88625 0.05125 9.7725 -0.4375 8.625 C-1.25306463 6.73289006 -2.07856355 4.84287291 -3 3 C-2.34 3 -1.68 3 -1 3 C-0.67 2.01 -0.34 1.02 0 0 Z " fill="#DDF3F9" transform="translate(163,122)"/>
<path d="M0 0 C0.99 0 1.98 0 3 0 C1.26629783 5.06852928 -1.56776869 9.41268637 -4.375 13.9375 C-4.85710937 14.72318359 -5.33921875 15.50886719 -5.8359375 16.31835938 C-6.77852839 17.84878888 -7.72722461 19.37547851 -8.68261719 20.89794922 C-9.51414085 22.22475032 -10.33416121 23.55889538 -11.13769531 24.90283203 C-12.1640625 26.56640625 -12.1640625 26.56640625 -14 29 C-14.99 29 -15.98 29 -17 29 C-17 28.34 -17 27.68 -17 27 C-16.34 27 -15.68 27 -15 27 C-14.896875 26.360625 -14.79375 25.72125 -14.6875 25.0625 C-14.460625 24.381875 -14.23375 23.70125 -14 23 C-13.01 22.67 -12.02 22.34 -11 22 C-11 20.68 -11 19.36 -11 18 C-10.34 18 -9.68 18 -9 18 C-8.7834375 17.1028125 -8.7834375 17.1028125 -8.5625 16.1875 C-8.1127561 14.43849596 -7.57107659 12.71322977 -7 11 C-6.34 10.67 -5.68 10.34 -5 10 C-5.33 9.01 -5.66 8.02 -6 7 C-5.34 7 -4.68 7 -4 7 C-2.68 4.69 -1.36 2.38 0 0 Z " fill="#638CAE" transform="translate(201,129)"/>
<path d="M0 0 C3.125 0.375 3.125 0.375 6 1 C4.59561113 4.39393978 3.13616902 6.08345227 0 8 C-2.578125 8.29296875 -2.578125 8.29296875 -5.25 8.1875 C-6.14203125 8.16042969 -7.0340625 8.13335937 -7.953125 8.10546875 C-8.62859375 8.07066406 -9.3040625 8.03585938 -10 8 C-10.33 6.68 -10.66 5.36 -11 4 C-10.37351562 3.87882813 -9.74703125 3.75765625 -9.1015625 3.6328125 C-8.28429687 3.46523437 -7.46703125 3.29765625 -6.625 3.125 C-5.81289062 2.96257812 -5.00078125 2.80015625 -4.1640625 2.6328125 C-1.81326077 2.13341068 -1.81326077 2.13341068 0 0 Z " fill="#15192C" transform="translate(121,211)"/>
<path d="M0 0 C0 1.32 0 2.64 0 4 C0.66 4 1.32 4 2 4 C2.33 3.34 2.66 2.68 3 2 C4.25955231 5.77865693 3.48087189 7.03411786 2.0625 10.6875 C1.68222656 11.68136719 1.30195312 12.67523438 0.91015625 13.69921875 C0.60980469 14.45847656 0.30945312 15.21773437 0 16 C-3.23616246 11.14575631 -5.09864057 5.76870037 -6 0 C-3 -1 -3 -1 0 0 Z " fill="#E8EDF1" transform="translate(60,194)"/>
<path d="M0 0 C2.97 0.495 2.97 0.495 6 1 C6 2.65 6 4.3 6 6 C7.65 6 9.3 6 11 6 C11 11.61 11 17.22 11 23 C10.67 23 10.34 23 10 23 C9.95101562 22.24074219 9.90203125 21.48148438 9.8515625 20.69921875 C9.77679688 19.70535156 9.70203125 18.71148437 9.625 17.6875 C9.55539063 16.70136719 9.48578125 15.71523437 9.4140625 14.69921875 C9.16134528 11.78471567 9.16134528 11.78471567 7 9 C6.34 9 5.68 9 5 9 C4.67 9.66 4.34 10.32 4 11 C2.68 10.01 1.36 9.02 0 8 C0.2784375 7.13375 0.2784375 7.13375 0.5625 6.25 C1.04023546 3.79307475 0.75729364 2.35602466 0 0 Z " fill="#E2E3EB" transform="translate(176,189)"/>
<path d="M0 0 C0.33 0.66 0.66 1.32 1 2 C3.52733235 2.65555119 3.52733235 2.65555119 6 3 C6 2.34 6 1.68 6 1 C6.66 1 7.32 1 8 1 C9.98362069 3.91708924 9.9876191 5.12380904 9.625 8.75 C9.41875 9.8225 9.2125 10.895 9 12 C7.02 12 5.04 12 3 12 C2.49166409 10.75336669 1.99368855 9.50250613 1.5 8.25 C1.2215625 7.55390625 0.943125 6.8578125 0.65625 6.140625 C0 4 0 4 0 0 Z " fill="#101933" transform="translate(73,207)"/>
<path d="M0 0 C-0.33 0.66 -0.66 1.32 -1 2 C-2.175625 1.9175 -3.35125 1.835 -4.5625 1.75 C-9.38033365 1.71577028 -11.99938238 3.43960472 -16 6 C-16.66 6 -17.32 6 -18 6 C-18 5.34 -18 4.68 -18 4 C-22.32371893 6.02633069 -22.32371893 6.02633069 -26 9 C-26.99 9 -27.98 9 -29 9 C-29 9.66 -29 10.32 -29 11 C-31.5614657 13.29648649 -32.47967572 14 -36 14 C-30.7016804 6.68806725 -22.24193023 1.72575737 -13.3125 0.19921875 C-8.87335558 -0.18320754 -4.44969308 -0.1497093 0 0 Z " fill="#6089C1" transform="translate(235,78)"/>
<path d="M0 0 C2.875 -0.1875 2.875 -0.1875 6 0 C6.66 0.99 7.32 1.98 8 3 C10.05925139 3.72382467 10.05925139 3.72382467 12 4 C12 5.32 12 6.64 12 8 C13.32 8.33 14.64 8.66 16 9 C11.23972817 9.38082175 7.87433275 9.42155329 3.5 7.3125 C0.78322011 4.7994786 0.20196431 3.63535761 0 0 Z " fill="#20233D" transform="translate(249,211)"/>
<path d="M0 0 C1.32 0 2.64 0 4 0 C4 2.31 4 4.62 4 7 C2.35 7 0.7 7 -1 7 C-1 8.65 -1 10.3 -1 12 C0.65 12 2.3 12 4 12 C4 17.94 4 23.88 4 30 C3.67 30 3.34 30 3 30 C3 24.39 3 18.78 3 13 C1.35 13.66 -0.3 14.32 -2 15 C-3.6112798 9.28728072 -2.08989546 5.31329355 0 0 Z " fill="#D3DAE3" transform="translate(156,183)"/>
<path d="M0 0 C5.58575 1.63848667 10.46141764 3.27603499 15 7 C15 7.99 15 8.98 15 10 C13.02 10.66 11.04 11.32 9 12 C9 10.35 9 8.7 9 7 C7.329375 6.566875 7.329375 6.566875 5.625 6.125 C2 5 2 5 0 3 C0 2.01 0 1.02 0 0 Z " fill="#70BDB6" transform="translate(99,79)"/>
<path d="M0 0 C0.33 0.66 0.66 1.32 1 2 C1.99 1.67 2.98 1.34 4 1 C4.48275862 7.27586207 4.48275862 7.27586207 2.375 10.4375 C-0.602598 12.39644605 -2.50355037 12.31785906 -6 12 C-6 10.68 -6 9.36 -6 8 C-5.38125 7.79375 -4.7625 7.5875 -4.125 7.375 C-1.15346355 5.45224112 -0.86975341 3.33405473 0 0 Z " fill="#151933" transform="translate(267,207)"/>
<path d="M0 0 C0.33 0 0.66 0 1 0 C1 5.61 1 11.22 1 17 C0.01 17.33 -0.98 17.66 -2 18 C-4 16 -4 16 -4.23046875 13.7578125 C-4.21628906 12.88898438 -4.20210937 12.02015625 -4.1875 11.125 C-4.18105469 10.26132813 -4.17460937 9.39765625 -4.16796875 8.5078125 C-4.01393667 6.20807774 -3.64161776 4.20716511 -3 2 C-2.01 2 -1.02 2 0 2 C0 1.34 0 0.68 0 0 Z " fill="#0C122C" transform="translate(164,195)"/>
<path d="M0 0 C0.66 0 1.32 0 2 0 C0.39706789 4.70012296 -2.16489942 8.49361863 -4.9375 12.5625 C-5.38029297 13.22185547 -5.82308594 13.88121094 -6.27929688 14.56054688 C-8.4429088 17.76888349 -10.63623664 20.93412871 -13 24 C-13.99 23.67 -14.98 23.34 -16 23 C-15.34 22.67 -14.68 22.34 -14 22 C-12.04015828 18.78026003 -10.26381474 15.51557343 -8.546875 12.16015625 C-8.03640625 11.17917969 -7.5259375 10.19820312 -7 9.1875 C-6.525625 8.25292969 -6.05125 7.31835938 -5.5625 6.35546875 C-3.89699274 3.84471655 -2.78327048 3.037728 0 2 C0 1.34 0 0.68 0 0 Z " fill="#6D9CA8" transform="translate(149,133)"/>
<path d="M0 0 C2.92106855 1.46053428 4.62028996 2.95579738 5.75 6.0625 C6 8 6 8 5 10 C5.66 10 6.32 10 7 10 C6.67 12.97 6.34 15.94 6 19 C5.67 19 5.34 19 5 19 C4.34 15.04 3.68 11.08 3 7 C2.34 7 1.68 7 1 7 C1 6.34 1 5.68 1 5 C-3.70973649 3.23384882 -8.03083364 2.51405169 -13 2 C-13 1.67 -13 1.34 -13 1 C-12.31292969 1.01160156 -11.62585938 1.02320313 -10.91796875 1.03515625 C-9.56638672 1.04869141 -9.56638672 1.04869141 -8.1875 1.0625 C-6.84751953 1.07990234 -6.84751953 1.07990234 -5.48046875 1.09765625 C-2.86586209 1.11009967 -2.86586209 1.11009967 0 0 Z " fill="#DEE2E9" transform="translate(234,188)"/>
<path d="M0 0 C0.66 0.66 1.32 1.32 2 2 C1.34 2 0.68 2 0 2 C-0.33 2.99 -0.66 3.98 -1 5 C-1.66 5.66 -2.32 6.32 -3 7 C-3 7.33 -3 7.66 -3 8 C-4.98 8 -6.96 8 -9 8 C-9 7.34 -9 6.68 -9 6 C-10.32 6.33 -11.64 6.66 -13 7 C-13.33 5.35 -13.66 3.7 -14 2 C-12.98679688 2.03480469 -12.98679688 2.03480469 -11.953125 2.0703125 C-11.06109375 2.08835938 -10.1690625 2.10640625 -9.25 2.125 C-8.36828125 2.14820313 -7.4865625 2.17140625 -6.578125 2.1953125 C-3.8864142 1.99139502 -2.30095026 1.36551721 0 0 Z " fill="#F0F3F2" transform="translate(233,217)"/>
<path d="M0 0 C1.32 0 2.64 0 4 0 C4 2.64 4 5.28 4 8 C6.64 8 9.28 8 12 8 C12 9.98 12 11.96 12 14 C9.36 14 6.72 14 4 14 C4 13.67 4 13.34 4 13 C5.98 13 7.96 13 10 13 C10 12.01 10 11.02 10 10 C7.36 10 4.72 10 2 10 C1.01879536 6.94736336 1.01879536 5.05263664 2 2 C1.34 2 0.68 2 0 2 C0 1.34 0 0.68 0 0 Z " fill="#454958" transform="translate(189,182)"/>
<path d="M0 0 C5.28 0 10.56 0 16 0 C16 0.99 16 1.98 16 3 C15.34 3 14.68 3 14 3 C14 2.34 14 1.68 14 1 C10.83884224 2.36983503 10.0072908 2.9890638 8 6 C7.236875 5.690625 6.47375 5.38125 5.6875 5.0625 C3.81210323 4.32106407 1.91315348 3.63771783 0 3 C0 2.01 0 1.02 0 0 Z " fill="#F4F9FB" transform="translate(106,207)"/>
<path d="M0 0 C2.13586678 3.20380017 2.23132175 4.01939967 2.125 7.6875 C2.10695312 8.49574219 2.08890625 9.30398437 2.0703125 10.13671875 C2.03550781 11.05904297 2.03550781 11.05904297 2 12 C-6.19256018 14.43326039 -6.19256018 14.43326039 -9.5625 12.625 C-10.036875 12.08875 -10.51125 11.5525 -11 11 C-8.03 10.34 -5.06 9.68 -2 9 C-1.34 6.03 -0.68 3.06 0 0 Z " fill="#E8E8EC" transform="translate(169,84)"/>
<path d="M0 0 C1.32 0 2.64 0 4 0 C4 1.32 4 2.64 4 4 C2.35 4.33 0.7 4.66 -1 5 C-0.34 6.98 0.32 8.96 1 11 C0.01 11.66 -0.98 12.32 -2 13 C-2.66 12.67 -3.32 12.34 -4 12 C-4.40729228 9.67843403 -4.74438677 7.3431213 -5 5 C-4.34 5 -3.68 5 -3 5 C-2.67 4.34 -2.34 3.68 -2 3 C-1.34 3 -0.68 3 0 3 C0 2.01 0 1.02 0 0 Z " fill="#F1F3F7" transform="translate(250,206)"/>
<path d="M0 0 C0.33 0 0.66 0 1 0 C1.33 5.61 1.66 11.22 2 17 C4.31 17.33 6.62 17.66 9 18 C9 19.98 9 21.96 9 24 C6.36 24 3.72 24 1 24 C1 23.67 1 23.34 1 23 C3.31 23 5.62 23 8 23 C8 21.68 8 20.36 8 19 C6.02 19 4.04 19 2 19 C2 19.99 2 20.98 2 22 C1.34 21.67 0.68 21.34 0 21 C-0.5625 19.0625 -0.5625 19.0625 -1 17 C-1.33 16.34 -1.66 15.68 -2 15 C-1.67 14.34 -1.34 13.68 -1 13 C-0.77049681 10.795636 -0.58924067 8.58607827 -0.4375 6.375 C-0.35371094 5.18648437 -0.26992187 3.99796875 -0.18359375 2.7734375 C-0.12300781 1.85820312 -0.06242188 0.94296875 0 0 Z " fill="#545968" transform="translate(192,196)"/>
<path d="M0 0 C1 1 1 1 1.0625 3.5625 C1.041875 4.366875 1.02125 5.17125 1 6 C-0.98 6.99 -0.98 6.99 -3 8 C-2.34 6.02 -1.68 4.04 -1 2 C-6.61 2 -12.22 2 -18 2 C-18 1.67 -18 1.34 -18 1 C-11.79194002 -0.77582803 -6.36445355 -1.40643058 0 0 Z " fill="#E6F7FD" transform="translate(236,76)"/>
<path d="M0 0 C0.33 0.66 0.66 1.32 1 2 C3.02463255 2.65213292 3.02463255 2.65213292 5 3 C5.28571429 11.57142857 5.28571429 11.57142857 3 15 C0.3555523 11.95035467 -0.44204547 9.82183107 -0.75 5.8125 C-0.82734375 4.93207031 -0.9046875 4.05164063 -0.984375 3.14453125 C-0.98953125 2.43683594 -0.9946875 1.72914063 -1 1 C-0.67 0.67 -0.34 0.34 0 0 Z M3 6 C2.34 7.65 1.68 9.3 1 11 C1.99 10.67 2.98 10.34 4 10 C3.67 8.68 3.34 7.36 3 6 Z " fill="#0A1025" transform="translate(234,198)"/>
<path d="M0 0 C0.66 0.33 1.32 0.66 2 1 C2.2295711 4.36704285 2.33943529 6.41370268 0.625 9.375 C0.08875 9.91125 -0.4475 10.4475 -1 11 C-1.66 11 -2.32 11 -3 11 C-4.34882408 11.63474075 -5.6846659 12.29848848 -7 13 C-5.35821735 8.22390502 -2.73453298 4.20617096 0 0 Z " fill="#E9F2F8" transform="translate(215,112)"/>
<path d="M0 0 C-0.33 2.31 -0.66 4.62 -1 7 C-3.64 7 -6.28 7 -9 7 C-9.33 6.34 -9.66 5.68 -10 5 C-9.01 4.34 -8.02 3.68 -7 3 C-7.66 2.34 -8.32 1.68 -9 1 C-2.25 0 -2.25 0 0 0 Z " fill="#363B57" transform="translate(230,213)"/>
<path d="M0 0 C1.32 0.99 2.64 1.98 4 3 C3.21681311 6.91593446 1.60820142 10.36406635 0 14 C-2.01548938 10.97676593 -2.75131522 9.5644819 -3 6 C-1.5625 2.6875 -1.5625 2.6875 0 0 Z " fill="#1F2644" transform="translate(57,205)"/>
<path d="M0 0 C0.99 0.33 1.98 0.66 3 1 C3 1.66 3 2.32 3 3 C3.66 3 4.32 3 5 3 C5.66 4.98 6.32 6.96 7 9 C6.01 9.495 6.01 9.495 5 10 C5 9.34 5 8.68 5 8 C3.68 8 2.36 8 1 8 C-1.25 6 -1.25 6 -3 4 C-2.34 4 -1.68 4 -1 4 C-0.67 2.68 -0.34 1.36 0 0 Z " fill="#21283D" transform="translate(232,192)"/>
<path d="M0 0 C0.33 0.66 0.66 1.32 1 2 C0.67 2.66 0.34 3.32 0 4 C-0.039992 5.99960012 -0.04346799 8.00047242 0 10 C0.66 10.33 1.32 10.66 2 11 C2.99 10.67 3.98 10.34 5 10 C4.67 11.98 4.34 13.96 4 16 C0.63629679 14.60812281 -1.21906331 13.20568604 -3 10 C-3.44522837 6.438173 -3.43102443 4.68245535 -1.5 1.625 C-1.005 1.08875 -0.51 0.5525 0 0 Z " fill="#1F263B" transform="translate(153,79)"/>
<path d="M0 0 C1.32 0 2.64 0 4 0 C2.375 5.75 2.375 5.75 -1 8 C-1.99 9.485 -1.99 9.485 -3 11 C-3.99 10.01 -4.98 9.02 -6 8 C-5.67 7.01 -5.34 6.02 -5 5 C-4.34 5 -3.68 5 -3 5 C-2.54625 4.175 -2.0925 3.35 -1.625 2.5 C-1.08875 1.675 -0.5525 0.85 0 0 Z " fill="#5C99C3" transform="translate(188,145)"/>
<path d="M0 0 C3.3 0 6.6 0 10 0 C10 0.66 10 1.32 10 2 C11.093125 1.79375 12.18625 1.5875 13.3125 1.375 C17 1 17 1 20 3 C13.4 3 6.8 3 0 3 C0 2.01 0 1.02 0 0 Z " fill="#091022" transform="translate(106,203)"/>
<path d="M0 0 C1.98 0 3.96 0 6 0 C6.042721 1.66611905 6.04063832 3.33382885 6 5 C4.10871658 6.89128342 1.42932274 6.2366852 -1.08984375 6.328125 C-2.03537109 6.16570312 -2.03537109 6.16570312 -3 6 C-3.66 5.01 -4.32 4.02 -5 3 C-3.35 3 -1.7 3 0 3 C0 2.01 0 1.02 0 0 Z " fill="#373C4C" transform="translate(168,214)"/>
<path d="M0 0 C1.98 0 3.96 0 6 0 C5.01 1.485 5.01 1.485 4 3 C3.34 3 2.68 3 2 3 C0.66666667 6 0.66666667 6 2 9 C2.66 9.33 3.32 9.66 4 10 C3.34 10 2.68 10 2 10 C1.67 10.99 1.34 11.98 1 13 C0.34 12.01 -0.32 11.02 -1 10 C-1.99 10.495 -1.99 10.495 -3 11 C-2.01 7.37 -1.02 3.74 0 0 Z " fill="#323B50" transform="translate(66,190)"/>
<path d="M0 0 C1.98 0 3.96 0 6 0 C6.33 1.65 6.66 3.3 7 5 C3.7 5.33 0.4 5.66 -3 6 C-2.67 5.01 -2.34 4.02 -2 3 C-1.34 3 -0.68 3 0 3 C0 2.01 0 1.02 0 0 Z " fill="#0F172C" transform="translate(112,190)"/>
<path d="M0 0 C0.33 0.66 0.66 1.32 1 2 C1.66 2.33 2.32 2.66 3 3 C2.01 4.485 2.01 4.485 1 6 C0.34 6 -0.32 6 -1 6 C-1.33 6.66 -1.66 7.32 -2 8 C-2.495 8.61875 -2.99 9.2375 -3.5 9.875 C-4.98963812 11.98532067 -5.55094336 13.48528282 -6 16 C-6.99 16 -7.98 16 -9 16 C-7.66414626 11.99243877 -5.65836661 9.00249087 -3.17578125 5.6484375 C-1.8939504 3.85131916 -0.8888731 2.02016614 0 0 Z " fill="#DAEAF7" transform="translate(225,96)"/>
<path d="M0 0 C1.32 0.99 2.64 1.98 4 3 C3.67 4.32 3.34 5.64 3 7 C2.67 6.34 2.34 5.68 2 5 C-0.18490007 7.67642489 -0.18490007 7.67642489 0 10 C-0.66 10 -1.32 10 -2 10 C-2.33 10.99 -2.66 11.98 -3 13 C-3.27429625 7.60550707 -3.36055646 4.48074195 0 0 Z " fill="#2B3248" transform="translate(212,195)"/>
<path d="M0 0 C1.32 0.99 2.64 1.98 4 3 C3.34 4.98 2.68 6.96 2 9 C1.67 8.01 1.34 7.02 1 6 C-0.32 6.33 -1.64 6.66 -3 7 C-3.66 6.01 -4.32 5.02 -5 4 C-3.35 3.34 -1.7 2.68 0 2 C0 1.34 0 0.68 0 0 Z " fill="#4C84CA" transform="translate(206,87)"/>
<path d="M0 0 C0.99 0 1.98 0 3 0 C3.33 0.99 3.66 1.98 4 3 C4 2.01 4 1.02 4 0 C5.98 0 7.96 0 10 0 C10 1.32 10 2.64 10 4 C7.03 4 4.06 4 1 4 C0.67 2.68 0.34 1.36 0 0 Z " fill="#0C0F20" transform="translate(190,215)"/>
<path d="M0 0 C2.46800047 1.15173355 4.04783565 2.04783565 6 4 C6 5.32 6 6.64 6 8 C4.35 8 2.7 8 1 8 C-0.42944945 5.64561267 -1.08661261 4.51967567 -0.625 1.75 C-0.41875 1.1725 -0.2125 0.595 0 0 Z " fill="#313449" transform="translate(264,190)"/>
<path d="M0 0 C1.32 0.66 2.64 1.32 4 2 C4 2.66 4 3.32 4 4 C4.5775 4.226875 5.155 4.45375 5.75 4.6875 C8.5663661 6.33038023 10.08077114 8.39533227 12 11 C11.67 11.66 11.34 12.32 11 13 C7.04 9.37 3.08 5.74 -1 2 C-0.67 1.34 -0.34 0.68 0 0 Z " fill="#D9F3F6" transform="translate(138,105)"/>
<path d="M0 0 C1.09658936 3.28976808 0.79953138 4.71303767 0 8 C-1.98 8 -3.96 8 -6 8 C-6 6.35 -6 4.7 -6 3 C-5.195625 2.87625 -4.39125 2.7525 -3.5625 2.625 C-2.716875 2.41875 -1.87125 2.2125 -1 2 C-0.67 1.34 -0.34 0.68 0 0 Z " fill="#141F35" transform="translate(161,187)"/>
<path d="M0 0 C0.93423645 3.01031744 1.04449911 3.86650268 0 7 C-0.66 7 -1.32 7 -2 7 C-2 7.99 -2 8.98 -2 10 C-4 11.6875 -4 11.6875 -6 13 C-6 8.61793033 -5.43228025 7.69573036 -3 4.25 C-2.443125 3.45078125 -1.88625 2.6515625 -1.3125 1.828125 C-0.879375 1.22484375 -0.44625 0.6215625 0 0 Z " fill="#E1F1F5" transform="translate(148,138)"/>
<path d="M0 0 C0.66 0.33 1.32 0.66 2 1 C2.51953125 2.9609375 2.51953125 2.9609375 2.8125 5.375 C2.92207031 6.16648438 3.03164063 6.95796875 3.14453125 7.7734375 C3 10 3 10 1.51171875 11.7890625 C1.01285156 12.18867188 0.51398437 12.58828125 0 13 C-1.0161692 8.37078475 -0.83796731 4.65537393 0 0 Z " fill="#0C1326" transform="translate(54,198)"/>
<path d="M0 0 C3.63 0 7.26 0 11 0 C8 2 8 2 6 2 C5.67 2.99 5.34 3.98 5 5 C3.35 5 1.7 5 0 5 C0 3.35 0 1.7 0 0 Z " fill="#7BC7B7" transform="translate(85,78)"/>
<path d="M0 0 C1.64826111 2.96687001 2.44271087 5.65626525 3 9 C2.01 9.495 2.01 9.495 1 10 C1 9.34 1 8.68 1 8 C-0.32 7.67 -1.64 7.34 -3 7 C-3.33 5.68 -3.66 4.36 -4 3 C-2.68 2.67 -1.36 2.34 0 2 C0 1.34 0 0.68 0 0 Z " fill="#20273E" transform="translate(75,201)"/>
<path d="M0 0 C2.5 1.125 2.5 1.125 5 3 C5.5625 5.875 5.5625 5.875 5 9 C3 11.875 3 11.875 1 14 C1.309375 12.205625 1.309375 12.205625 1.625 10.375 C2.13581838 6.4423982 1.56734717 3.6878757 0 0 Z " fill="#6F98AE" transform="translate(150,119)"/>
<path d="M0 0 C2.73625437 1.47336774 3.38708421 2.44772966 4.4375 5.3125 C3.4475 5.9725 2.4575 6.6325 1.4375 7.3125 C0.7775 6.3225 0.1175 5.3325 -0.5625 4.3125 C-1.243125 4.1475 -1.92375 3.9825 -2.625 3.8125 C-3.264375 3.6475 -3.90375 3.4825 -4.5625 3.3125 C-4.8925 2.3225 -5.2225 1.3325 -5.5625 0.3125 C-2.5625 -0.6875 -2.5625 -0.6875 0 0 Z " fill="#172038" transform="translate(164.5625,77.6875)"/>
<path d="M0 0 C0.33 1.32 0.66 2.64 1 4 C2.65 3.67 4.3 3.34 6 3 C5.67 3.99 5.34 4.98 5 6 C2.5625 7.125 2.5625 7.125 0 8 C-0.99 8.495 -0.99 8.495 -2 9 C-2.66 8.34 -3.32 7.68 -4 7 C-3.525625 6.401875 -3.05125 5.80375 -2.5625 5.1875 C-0.83534256 2.99617076 -0.83534256 2.99617076 0 0 Z " fill="#E3E6E8" transform="translate(238,209)"/>
<path d="M0 0 C2.18975773 3.28463659 2.99806563 6.20696275 4 10 C3.01 10.33 2.02 10.66 1 11 C-0.625 9.4375 -0.625 9.4375 -2 7 C-1.1875 3.25 -1.1875 3.25 0 0 Z " fill="#DCE1E8" transform="translate(51,204)"/>
<path d="M0 0 C5.32697239 1.45281065 8.36402802 5.08111378 12 9 C11.67 9.66 11.34 10.32 11 11 C9 9.625 9 9.625 7 8 C7 7.34 7 6.68 7 6 C6.21625 5.7525 5.4325 5.505 4.625 5.25 C1.67682892 3.84610901 1.0975223 2.99324263 0 0 Z " fill="#64A0AB" transform="translate(133,105)"/>
<path d="M0 0 C0.99 0.33 1.98 0.66 3 1 C3 2.32 3 3.64 3 5 C2.01 5.495 2.01 5.495 1 6 C1 6.66 1 7.32 1 8 C0.01 7.67 -0.98 7.34 -2 7 C-2.66 7 -3.32 7 -4 7 C-4 4 -4 4 -2 1.8125 C-1.34 1.214375 -0.68 0.61625 0 0 Z " fill="#6198C2" transform="translate(191,98)"/>
<path d="M0 0 C0.33 0.66 0.66 1.32 1 2 C1.99 1.67 2.98 1.34 4 1 C4 2.98 4 4.96 4 7 C3.01 6.67 2.02 6.34 1 6 C0.67 6.66 0.34 7.32 0 8 C-0.66 8 -1.32 8 -2 8 C-1.125 1.125 -1.125 1.125 0 0 Z " fill="#0B1127" transform="translate(267,207)"/>
<path d="M0 0 C0.99 1.32 1.98 2.64 3 4 C3.99 3.67 4.98 3.34 6 3 C6 4.32 6 5.64 6 7 C5.01 7 4.02 7 3 7 C3.33 8.32 3.66 9.64 4 11 C3.01 10.67 2.02 10.34 1 10 C-0.60725635 6.78548731 -0.05748185 3.56387464 0 0 Z " fill="#2A3049" transform="translate(99,202)"/>
<path d="M0 0 C3.1875 -0.3125 3.1875 -0.3125 7 0 C9.9375 2.5 9.9375 2.5 12 5 C11.67 5.66 11.34 6.32 11 7 C9 7 9 7 7.375 5.625 C6 4 6 4 6 2 C4.68 2.33 3.36 2.66 2 3 C2 2.34 2 1.68 2 1 C1.34 0.67 0.68 0.34 0 0 Z " fill="#DBE1EA" transform="translate(221,195)"/>
<path d="M0 0 C4.75 0.75 4.75 0.75 7 3 C6.67 3.66 6.34 4.32 6 5 C4.68 5 3.36 5 2 5 C2 5.66 2 6.32 2 7 C1.34 7 0.68 7 0 7 C0 4.69 0 2.38 0 0 Z " fill="#F5F7F9" transform="translate(166,196)"/>
<path d="M0 0 C0.78375 0.04125 1.5675 0.0825 2.375 0.125 C1.41770084 1.25088014 0.45912105 2.3756715 -0.5 3.5 C-1.03367188 4.12648437 -1.56734375 4.75296875 -2.1171875 5.3984375 C-3.23932007 6.68336651 -4.41871975 7.91871975 -5.625 9.125 C-6.25 7.3125 -6.25 7.3125 -6.625 5.125 C-3.31352459 0.15778689 -3.31352459 0.15778689 0 0 Z " fill="#E9EDF5" transform="translate(214.625,190.875)"/>
<path d="M0 0 C1.53445094 3.06890187 0.54984289 5.70094266 0 9 C-0.99 9 -1.98 9 -3 9 C-4 8 -4 8 -4.0625 4.9375 C-4.041875 3.968125 -4.02125 2.99875 -4 2 C-2.68 1.34 -1.36 0.68 0 0 Z " fill="#619AB2" transform="translate(168,120)"/>
<path d="M0 0 C3.72433382 1.2125738 7.37802806 2.50859979 11 4 C11 7 11 7 10 10 C6.66666667 6.66666667 3.33333333 3.33333333 0 0 Z " fill="#DEF8F8" transform="translate(117,88)"/>
<path d="M0 0 C0.66 0 1.32 0 2 0 C2 0.99 2 1.98 2 3 C2.66 3 3.32 3 4 3 C4 2.34 4 1.68 4 1 C4.66 1 5.32 1 6 1 C5.625 2.9375 5.625 2.9375 5 5 C2.29120665 6.35439668 -0.00933268 6.06501451 -3 6 C-2 4 -1 2 0 0 Z " fill="#D9DEE7" transform="translate(260,209)"/>
<path d="M0 0 C1.65 0 3.3 0 5 0 C5 0.66 5 1.32 5 2 C5.66 2 6.32 2 7 2 C6.67 3.65 6.34 5.3 6 7 C5.67 6.34 5.34 5.68 5 5 C2.97536745 4.34786708 2.97536745 4.34786708 1 4 C0.67 2.68 0.34 1.36 0 0 Z " fill="#F0F4F5" transform="translate(123,207)"/>
<path d="M0 0 C0.66 0 1.32 0 2 0 C4.09230769 4.43076923 4.09230769 4.43076923 3.625 7.3125 C3.41875 7.869375 3.2125 8.42625 3 9 C2.67 8.01 2.34 7.02 2 6 C1.34 6 0.68 6 0 6 C-0.33 6.99 -0.66 7.98 -1 9 C-2.25541557 5.23375329 -1.37061958 3.62811066 0 0 Z " fill="#D3DBE3" transform="translate(68,200)"/>
<path d="M0 0 C0.763125 0.804375 1.52625 1.60875 2.3125 2.4375 C4.79430898 5.16799024 4.79430898 5.16799024 8 6 C8.33 5.01 8.66 4.02 9 3 C9.33 3.66 9.66 4.32 10 5 C9.67 5.99 9.34 6.98 9 8 C6.9375 8.6875 6.9375 8.6875 5 9 C4.67 8.34 4.34 7.68 4 7 C3.01 6.67 2.02 6.34 1 6 C0.67 4.02 0.34 2.04 0 0 Z " fill="#DDF0F6" transform="translate(179,152)"/>
<path d="M0 0 C2.82119614 1.03443859 3.84496198 1.73220706 5.375 4.375 C6 7 6 7 5.125 9.3125 C4.568125 10.1478125 4.568125 10.1478125 4 11 C4 10.01 4 9.02 4 8 C3.34 8 2.68 8 2 8 C0.23537317 4.91190305 0 3.76687864 0 0 Z " fill="#64BDB2" transform="translate(100,99)"/>
<path d="M0 0 C0.66 0.99 1.32 1.98 2 3 C1.38125 3.7425 0.7625 4.485 0.125 5.25 C-1.60437281 7.48801188 -2.86106661 9.43739987 -4 12 C-4.79953138 8.71303767 -5.09658936 7.28976808 -4 4 C-2.70644173 2.62804426 -1.37701298 1.28817344 0 0 Z " fill="#E9EDF3" transform="translate(153,75)"/>
<path d="M0 0 C0.33 1.32 0.66 2.64 1 4 C0.01 4.33 -0.98 4.66 -2 5 C-1.34 3.35 -0.68 1.7 0 0 Z M-4 3 C-2.10786631 5.38573379 -0.97608217 7.07175348 0 10 C-0.99 10.495 -0.99 10.495 -2 11 C-2.66 10.34 -3.32 9.68 -4 9 C-4.99 9 -5.98 9 -7 9 C-6.01 7.02 -5.02 5.04 -4 3 Z " fill="#1E2540" transform="translate(237,204)"/>
<path d="M0 0 C0.99 0 1.98 0 3 0 C3 0.99 3 1.98 3 3 C2.34 3 1.68 3 1 3 C1.66 5.31 2.32 7.62 3 10 C2.34 10 1.68 10 1 10 C0.67 10.66 0.34 11.32 0 12 C-0.98120464 8.94736336 -0.98120464 7.05263664 0 4 C-0.99 3.67 -1.98 3.34 -3 3 C-2.01 3 -1.02 3 0 3 C0 2.01 0 1.02 0 0 Z " fill="#E2E6ED" transform="translate(46,187)"/>
<path d="M0 0 C2.00720923 0.28674418 4.0085944 0.61866701 6 1 C4.63016497 4.16115776 4.0109362 4.9927092 1 7 C0.34 5.02 -0.32 3.04 -1 1 C-0.67 0.67 -0.34 0.34 0 0 Z " fill="#292E3E" transform="translate(121,211)"/>
<path d="M0 0 C2.125 0.9375 2.125 0.9375 4 2 C3.67 4.31 3.34 6.62 3 9 C1.35 7.35 -0.3 5.7 -2 4 C-1.34 4 -0.68 4 0 4 C0 3.34 0 2.68 0 2 C-0.66 1.67 -1.32 1.34 -2 1 C-1.34 0.67 -0.68 0.34 0 0 Z " fill="#252C46" transform="translate(119,191)"/>
<path d="M0 0 C1.98 0 3.96 0 6 0 C6 0.66 6 1.32 6 2 C6.99 2 7.98 2 9 2 C9 2.66 9 3.32 9 4 C6.36 4 3.72 4 1 4 C0.67 2.68 0.34 1.36 0 0 Z " fill="#091027" transform="translate(110,215)"/>
<path d="M0 0 C0 0.33 0 0.66 0 1 C-3.31114834 2.12880057 -6.58978257 3.21302675 -10 4 C-10.66 2.68 -11.32 1.36 -12 0 C-7.91556885 -1.53166168 -4.20544343 -0.63081652 0 0 Z " fill="#0D112C" transform="translate(228,215)"/>
<path d="M0 0 C1.65 1.65 3.3 3.3 5 5 C4.01 5.33 3.02 5.66 2 6 C1.67 6.99 1.34 7.98 1 9 C-1.14809171 5.77786243 -1.29386153 4.72224599 -1 1 C-0.67 0.67 -0.34 0.34 0 0 Z " fill="#182034" transform="translate(188,209)"/>
<path d="M0 0 C0.66 0.66 1.32 1.32 2 2 C1.625 5.625 1.625 5.625 1 9 C0.34 9 -0.32 9 -1 9 C-1.625 5.625 -1.625 5.625 -2 2 C-1.34 1.34 -0.68 0.68 0 0 Z " fill="#0F132C" transform="translate(65,199)"/>
<path d="M0 0 C1.8125 2.5 1.8125 2.5 3 5 C2.34 5.66 1.68 6.32 1 7 C0.505 6.360625 0.01 5.72125 -0.5 5.0625 C-3.98806387 2.18484731 -6.53461041 2.29769264 -11 2 C-11 1.67 -11 1.34 -11 1 C-3.00541516 -0.48736462 -3.00541516 -0.48736462 0 0 Z " fill="#D6DAE4" transform="translate(167,75)"/>
<path d="M0 0 C0.99 0.99 1.98 1.98 3 3 C1.60804085 5.7839183 -0.15575779 5.97898997 -3 7 C-3.1875 4.625 -3.1875 4.625 -3 2 C-2.01 1.34 -1.02 0.68 0 0 Z " fill="#5088CF" transform="translate(204,118)"/>
<path d="M0 0 C0.66 0.66 1.32 1.32 2 2 C1 5 1 5 -1.0625 6.1875 C-1.701875 6.455625 -2.34125 6.72375 -3 7 C-3.99 6.34 -4.98 5.68 -6 5 C-4.02 3.35 -2.04 1.7 0 0 Z " fill="#6093C5" transform="translate(198,92)"/>
<path d="M0 0 C1.33333333 0 2.66666667 0 4 0 C4 2.31 4 4.62 4 7 C3.34 7 2.68 7 2 7 C1.34 7.66 0.68 8.32 0 9 C0 6.03 0 3.06 0 0 Z " fill="#0A1124" transform="translate(165,83)"/>
<path d="M0 0 C0.66 0 1.32 0 2 0 C2 3.3 2 6.6 2 10 C1.01 10.33 0.02 10.66 -1 11 C-0.67 7.37 -0.34 3.74 0 0 Z " fill="#F3F6F9" transform="translate(240,200)"/>
<path d="M0 0 C2.64 0.33 5.28 0.66 8 1 C8 2.32 8 3.64 8 5 C5.125 4.75 5.125 4.75 2 4 C0.625 1.9375 0.625 1.9375 0 0 Z " fill="#10172A" transform="translate(251,201)"/>
<path d="M0 0 C2.875 -0.125 2.875 -0.125 6 0 C6.66 0.66 7.32 1.32 8 2 C5.69 3.32 3.38 4.64 1 6 C0 3 0 3 0 0 Z " fill="#E5EAF0" transform="translate(101,189)"/>
<path d="M0 0 C1.65 0 3.3 0 5 0 C5 0.99 5 1.98 5 3 C5.66 3.33 6.32 3.66 7 4 C4.36 4 1.72 4 -1 4 C-0.67 2.68 -0.34 1.36 0 0 Z " fill="#F0F8FB" transform="translate(167,186)"/>
<path d="M0 0 C1.65 0 3.3 0 5 0 C4.01 0.495 4.01 0.495 3 1 C2.34227572 4.02934491 2.34227572 4.02934491 2 7 C-1 6 -1 6 -3 4 C-2.01 3.67 -1.02 3.34 0 3 C0 2.01 0 1.02 0 0 Z " fill="#5897BC" transform="translate(175,113)"/>
<path d="M0 0 C0 0.66 0 1.32 0 2 C0.66 2.33 1.32 2.66 2 3 C-0.375 4.5625 -0.375 4.5625 -3 6 C-3.66 5.67 -4.32 5.34 -5 5 C-4.625 3.0625 -4.625 3.0625 -4 1 C-2 0 -2 0 0 0 Z " fill="#5281D6" transform="translate(217,82)"/>
<path d="M0 0 C0.99 0 1.98 0 3 0 C3 0.66 3 1.32 3 2 C4.32 2.66 5.64 3.32 7 4 C7 4.33 7 4.66 7 5 C4.69 5 2.38 5 0 5 C-0.5625 3.0625 -0.5625 3.0625 -1 1 C-0.67 0.67 -0.34 0.34 0 0 Z " fill="#EEF1F9" transform="translate(194,209)"/>
<path d="M0 0 C2.31 0.33 4.62 0.66 7 1 C7 1.99 7 2.98 7 4 C6.34 4 5.68 4 5 4 C4.67 4.99 4.34 5.98 4 7 C2.02 3.535 2.02 3.535 0 0 Z " fill="#70B4BC" transform="translate(119,137)"/>
<path d="M0 0 C2 2 2 2 2.5 5.0625 C2.665 6.031875 2.83 7.00125 3 8 C3.66 8.33 4.32 8.66 5 9 C4.34 9.66 3.68 10.32 3 11 C2.16121545 9.71186658 1.32913217 8.41936744 0.5 7.125 C0.0359375 6.40570313 -0.428125 5.68640625 -0.90625 4.9453125 C-2 3 -2 3 -2 1 C-1.34 0.67 -0.68 0.34 0 0 Z " fill="#73B9B2" transform="translate(110,117)"/>
<path d="M0 0 C1.32 0.99 2.64 1.98 4 3 C4.33 2.34 4.66 1.68 5 1 C5.66 2.32 6.32 3.64 7 5 C4.69 5 2.38 5 0 5 C-0.5625 3.0625 -0.5625 3.0625 -1 1 C-0.67 0.67 -0.34 0.34 0 0 Z " fill="#ECF1F6" transform="translate(167,209)"/>
<path d="M0 0 C2 3 2 3 1.625 6.1875 C1.41875 7.115625 1.2125 8.04375 1 9 C-0.32 9.33 -1.64 9.66 -3 10 C-2.01 6.7 -1.02 3.4 0 0 Z " fill="#D8DBE3" transform="translate(88,199)"/>
<path d="M0 0 C1.32 0.33 2.64 0.66 4 1 C3.67 2.65 3.34 4.3 3 6 C2.01 6.33 1.02 6.66 0 7 C0 4.69 0 2.38 0 0 Z " fill="#0F1524" transform="translate(187,183)"/>
<path d="M0 0 C0.66 0 1.32 0 2 0 C0.8141763 3.37503669 -0.27573689 5.64722731 -3 8 C-3.66 7.67 -4.32 7.34 -5 7 C-4.1875 5.0625 -4.1875 5.0625 -3 3 C-2.01 2.67 -1.02 2.34 0 2 C0 1.34 0 0.68 0 0 Z " fill="#729FB1" transform="translate(149,133)"/>
<path d="M0 0 C1.32 0 2.64 0 4 0 C4.625 2.375 4.625 2.375 5 5 C4.34 5.66 3.68 6.32 3 7 C0 2.25 0 2.25 0 0 Z " fill="#1D2537" transform="translate(80,206)"/>
<path d="M0 0 C0.66 0.33 1.32 0.66 2 1 C1.625 3.9375 1.625 3.9375 1 7 C0.01 7.495 0.01 7.495 -1 8 C-1.93065133 5.39417629 -2.14917407 4.35801776 -1.0625 1.75 C-0.711875 1.1725 -0.36125 0.595 0 0 Z M-4 5 C-3.34 5.66 -2.68 6.32 -2 7 C-2.66 7 -3.32 7 -4 7 C-4 6.34 -4 5.68 -4 5 Z " fill="#0B1127" transform="translate(85,200)"/>
<path d="M0 0 C0.99 0.33 1.98 0.66 3 1 C2.34 1 1.68 1 1 1 C1 3.31 1 5.62 1 8 C-0.65 8 -2.3 8 -4 8 C-3.34 7.67 -2.68 7.34 -2 7 C-1.26924352 4.6859378 -0.59861742 2.35171131 0 0 Z " fill="#DCE2ED" transform="translate(186,182)"/>
<path d="M0 0 C0.99 0.33 1.98 0.66 3 1 C1.1875 4 1.1875 4 -1 7 C-1.99 7 -2.98 7 -4 7 C-4 6.34 -4 5.68 -4 5 C-3.34 5 -2.68 5 -2 5 C-1.7834375 4.0409375 -1.7834375 4.0409375 -1.5625 3.0625 C-1 1 -1 1 0 0 Z " fill="#7396AD" transform="translate(188,151)"/>
<path d="M0 0 C2.64 0.66 5.28 1.32 8 2 C6.68 2.99 5.36 3.98 4 5 C2.68 4.34 1.36 3.68 0 3 C0 2.01 0 1.02 0 0 Z " fill="#75C6B9" transform="translate(99,79)"/>
<path d="M0 0 C0 0.99 0 1.98 0 3 C-2.64 3 -5.28 3 -8 3 C-8.33 2.34 -8.66 1.68 -9 1 C-5.846632 0.29925156 -3.27275026 0 0 0 Z " fill="#262A42" transform="translate(229,217)"/>
<path d="M0 0 C3 1 3 1 4.1875 3.0625 C4.455625 3.701875 4.72375 4.34125 5 5 C3.35 5.33 1.7 5.66 0 6 C0 4.02 0 2.04 0 0 Z " fill="#DCE2E6" transform="translate(158,213)"/>
<path d="M0 0 C4.455 0.99 4.455 0.99 9 2 C8.01 2.99 7.02 3.98 6 5 C5.01 5 4.02 5 3 5 C1.3125 2.5 1.3125 2.5 0 0 Z " fill="#272C40" transform="translate(211,212)"/>
<path d="M0 0 C0.66 0.66 1.32 1.32 2 2 C0.35 4.64 -1.3 7.28 -3 10 C-4 7 -4 7 -3.22265625 5.17578125 C-2.1484375 3.45052083 -1.07421875 1.72526042 0 0 Z " fill="#6A8BB3" transform="translate(214,110)"/>
<path d="M0 0 C-1.15173355 2.46800047 -2.04783565 4.04783565 -4 6 C-4.99 6 -5.98 6 -7 6 C-6.67 5.01 -6.34 4.02 -6 3 C-5.34 3 -4.68 3 -4 3 C-4 2.34 -4 1.68 -4 1 C-2 0 -2 0 0 0 Z " fill="#E0F8FD" transform="translate(194,94)"/>
<path d="M0 0 C2.35171131 0.59861742 4.6859378 1.26924352 7 2 C7.33 2.66 7.66 3.32 8 4 C2.25 4.125 2.25 4.125 0 3 C0 2.01 0 1.02 0 0 Z " fill="#18203E" transform="translate(160,211)"/>
<path d="M0 0 C-2.1875 2.0625 -2.1875 2.0625 -5 4 C-7.8125 3.75 -7.8125 3.75 -10 3 C-7.29536552 -0.8183075 -4.37912428 -0.24787496 0 0 Z " fill="#DBDCE5" transform="translate(117,195)"/>
<path d="M0 0 C1.65 0 3.3 0 5 0 C5.625 2.375 5.625 2.375 6 5 C5.34 5.66 4.68 6.32 4 7 C3.67 6.01 3.34 5.02 3 4 C2.01979625 2.9805881 1.02196992 1.97753644 0 1 C0 0.67 0 0.34 0 0 Z " fill="#151E32" transform="translate(67,191)"/>
<path d="M0 0 C0.99 0.33 1.98 0.66 3 1 C2.34 2.32 1.68 3.64 1 5 C-0.65 4.67 -2.3 4.34 -4 4 C-2.68 2.68 -1.36 1.36 0 0 Z " fill="#0D152C" transform="translate(262,190)"/>
<path d="M0 0 C0 0.99 0 1.98 0 3 C-1.98 3.99 -1.98 3.99 -4 5 C-4.99 4.01 -5.98 3.02 -7 2 C-4.35261084 0.5393715 -3.10551666 0 0 0 Z " fill="#1D243A" transform="translate(112,190)"/>
<path d="M0 0 C1.98 0 3.96 0 6 0 C5.1875 1.9375 5.1875 1.9375 4 4 C3.01 4.33 2.02 4.66 1 5 C0.67 3.35 0.34 1.7 0 0 Z " fill="#2B3140" transform="translate(47,190)"/>
<path d="M0 0 C2.75 0.8125 2.75 0.8125 5 2 C5 2.66 5 3.32 5 4 C2.03 3.67 -0.94 3.34 -4 3 C-2.3125 1.375 -2.3125 1.375 0 0 Z " fill="#DCDFE8" transform="translate(116,187)"/>
<path d="M0 0 C2.52588702 2.36292656 3.88820837 3.66462511 5 7 C3.68 7.33 2.36 7.66 1 8 C0.67 5.36 0.34 2.72 0 0 Z " fill="#DDF6F8" transform="translate(123,144)"/>
<path d="M0 0 C0.99 0.33 1.98 0.66 3 1 C0.36 2.98 -2.28 4.96 -5 7 C-4 3 -4 3 -2.125 1.1875 C-1.42375 0.795625 -0.7225 0.40375 0 0 Z " fill="#D6F5FA" transform="translate(169,115)"/>
<path d="M0 0 C2.96865509 2.54456151 4.3619751 5.48994665 6 9 C5.01 8.67 4.02 8.34 3 8 C3 7.34 3 6.68 3 6 C2.01 6 1.02 6 0 6 C0 4.02 0 2.04 0 0 Z " fill="#CEF2EF" transform="translate(97,102)"/>
<path d="M0 0 C0.66 0.99 1.32 1.98 2 3 C0.71034824 4.37562854 -0.62689293 5.70766393 -2 7 C-2.66 7 -3.32 7 -4 7 C-3.67 5.35 -3.34 3.7 -3 2 C-2.34 2 -1.68 2 -1 2 C-0.67 1.34 -0.34 0.68 0 0 Z " fill="#1B2131" transform="translate(166,88)"/>
<path d="M0 0 C2.78637633 4.1795645 1.79562512 6.14668677 1 11 C0.67 10.01 0.34 9.02 0 8 C-0.66 7.67 -1.32 7.34 -2 7 C-1.34 4.69 -0.68 2.38 0 0 Z " fill="#D4D6DD" transform="translate(169,84)"/>
<path d="M0 0 C1.98 0.66 3.96 1.32 6 2 C6 3.32 6 4.64 6 6 C5.34 6 4.68 6 4 6 C2.61061923 4.03852126 1.2739589 2.03833424 0 0 Z " fill="#DADFE8" transform="translate(123,193)"/>
<path d="M0 0 C1.0625 1.8125 1.0625 1.8125 2 4 C1.67 4.99 1.34 5.98 1 7 C0.01 6.67 -0.98 6.34 -2 6 C-2 4.35 -2 2.7 -2 1 C-1.34 0.67 -0.68 0.34 0 0 Z " fill="#57A1BE" transform="translate(149,122)"/>
<path d="M0 0 C1.98 1.65 3.96 3.3 6 5 C5.01 5.33 4.02 5.66 3 6 C1.68 4.68 0.36 3.36 -1 2 C-0.67 1.34 -0.34 0.68 0 0 Z " fill="#73B0B6" transform="translate(126,97)"/>
<path d="M0 0 C1.32 0.66 2.64 1.32 4 2 C2.02 4.97 2.02 4.97 0 8 C-0.66 7.34 -1.32 6.68 -2 6 C-1.34 4.02 -0.68 2.04 0 0 Z " fill="#6B8AB7" transform="translate(223,93)"/>
<path d="M0 0 C2.0625 0.4375 2.0625 0.4375 4 1 C4 1.99 4 2.98 4 4 C2.35 4 0.7 4 -1 4 C-1 1 -1 1 0 0 Z " fill="#070D23" transform="translate(158,91)"/>
<path d="M0 0 C3 1 3 1 4.1875 3.0625 C4.455625 3.701875 4.72375 4.34125 5 5 C3.35 5 1.7 5 0 5 C-0.33 4.01 -0.66 3.02 -1 2 C-0.67 1.34 -0.34 0.68 0 0 Z " fill="#0B1024" transform="translate(76,214)"/>
<path d="M0 0 C3.24208567 0.35049575 4.61527704 0.56221181 6.8125 3.0625 C7.204375 3.701875 7.59625 4.34125 8 5 C4.75791433 4.64950425 3.38472296 4.43778819 1.1875 1.9375 C0.795625 1.298125 0.40375 0.65875 0 0 Z " fill="#C6CDDB" transform="translate(106,210)"/>
<path d="M0 0 C0.99 0.66 1.98 1.32 3 2 C1.60804085 4.7839183 -0.15575779 4.97898997 -3 6 C-3 5.34 -3 4.68 -3 4 C-3.66 3.67 -4.32 3.34 -5 3 C-4.01 2.67 -3.02 2.34 -2 2 C-1.34 2.33 -0.68 2.66 0 3 C0 2.01 0 1.02 0 0 Z " fill="#E1E4EF" transform="translate(122,207)"/>
<path d="M0 0 C1.98 0.66 3.96 1.32 6 2 C5.34 4.31 4.68 6.62 4 9 C3.67 9 3.34 9 3 9 C2.690625 7.88625 2.38125 6.7725 2.0625 5.625 C1.17673517 2.2054845 1.17673517 2.2054845 0 0 Z " fill="#CCD1D8" transform="translate(268,204)"/>
<path d="M0 0 C1.9375 0.3125 1.9375 0.3125 4 1 C4.33 1.99 4.66 2.98 5 4 C3.35 3.67 1.7 3.34 0 3 C0 2.01 0 1.02 0 0 Z " fill="#181F30" transform="translate(104,193)"/>
<path d="M0 0 C0.66 0 1.32 0 2 0 C2 0.99 2 1.98 2 3 C2.66 3 3.32 3 4 3 C3.67 4.65 3.34 6.3 3 8 C0.4345406 5.4345406 0.45953913 3.52313332 0 0 Z " fill="#DCE1E8" transform="translate(72,191)"/>
<path d="M0 0 C2.31 0 4.62 0 7 0 C6.67 0.99 6.34 1.98 6 3 C4.02 3 2.04 3 0 3 C0 2.01 0 1.02 0 0 Z " fill="#F3F4FB" transform="translate(160,179)"/>
<path d="M0 0 C0.66 0 1.32 0 2 0 C2.66 0.99 3.32 1.98 4 3 C3.67 3.99 3.34 4.98 3 6 C1.68 5.01 0.36 4.02 -1 3 C-0.67 2.01 -0.34 1.02 0 0 Z " fill="#E2FAFC" transform="translate(168,136)"/>
<path d="M0 0 C1.875 0.125 1.875 0.125 4 1 C5.25 4.0625 5.25 4.0625 6 7 C3.00675737 5.9024777 2.15389099 5.32317108 0.75 2.375 C0.5025 1.59125 0.255 0.8075 0 0 Z " fill="#67A8AC" transform="translate(116,131)"/>
<path d="M0 0 C2.72426311 2.35277269 3.8141763 4.62496331 5 8 C4.01 8 3.02 8 2 8 C1.34 5.36 0.68 2.72 0 0 Z " fill="#CCEBF3" transform="translate(164,128)"/>
<path d="M0 0 C0.33 0.66 0.66 1.32 1 2 C1.66 2.33 2.32 2.66 3 3 C2.01 4.485 2.01 4.485 1 6 C0.34 6 -0.32 6 -1 6 C-1.33 6.66 -1.66 7.32 -2 8 C-1.125 1.125 -1.125 1.125 0 0 Z " fill="#E5F1F8" transform="translate(225,96)"/>
</svg>
